<?xml version="1.0" encoding="utf-8"?>
<!-- Generator: Adobe Illustrator 17.1.0, SVG Export Plug-In . SVG Version: 6.00 Build 0)  -->
<!DOCTYPE svg PUBLIC "-//W3C//DTD SVG 1.1//EN" "http://www.w3.org/Graphics/SVG/1.1/DTD/svg11.dtd">
<svg version="1.1" id="Layer_1" xmlns="http://www.w3.org/2000/svg" xmlns:xlink="http://www.w3.org/1999/xlink" x="0px" y="0px"
	 viewBox="0 0 512 512" enable-background="new 0 0 512 512" xml:space="preserve">
<path id="megaphone-3-icon" fill="#FFFFFF" d="M442.8,179l-47.5,25.2l-11.8-22.3l47.5-25.2L442.8,179z M368.5,157.3l-22.3-11.8
	l25.7-48.7l22.3,11.8L368.5,157.3z M459.2,261.4l-54.7-5.9l2.7-25.1l54.8,5.9L459.2,261.4z M252.3,359.5l28.9-5.7l-11.3,36.9
	c-2.1,6.7-7.6,11.8-14.5,13.1l-53.7,11c-6.7,1.3-13.5-1-18-6.1l-26.6-30.2l29-5.7l11,12.5c3,3.4,7.5,4.9,11.9,4l29.1-6
	c4.6-0.9,8.3-4.2,9.6-8.7L252.3,359.5z M97.1,309.6c-8.7,8.7-20.3,14-32.6,15L50,325.7l38.6,72.6l9.1-11.4
	c7.7-9.6,18.5-16.3,30.6-18.6l280.1-55.2L299.5,108.3L97.1,309.6z"/>
</svg>
