<?xml version="1.0" encoding="utf-8"?>
<!-- Generator: Adobe Illustrator 17.1.0, SVG Export Plug-In . SVG Version: 6.00 Build 0)  -->
<!DOCTYPE svg PUBLIC "-//W3C//DTD SVG 1.1//EN" "http://www.w3.org/Graphics/SVG/1.1/DTD/svg11.dtd">
<svg version="1.1" id="Layer_1" xmlns="http://www.w3.org/2000/svg" xmlns:xlink="http://www.w3.org/1999/xlink" x="0px" y="0px"
	 viewBox="0 0 512 512" enable-background="new 0 0 512 512" xml:space="preserve">
<g id="hPamJM.tif">
	<g>
		<path fill="#FFFFFF" d="M442,147.1c-19.9-36.2-48-64.8-84.2-84.7c-21.5,23.5-18.9,60.2,4.6,83.1C383.8,165.9,421.6,167,442,147.1z
			 M71,146.5c22.5,20.9,61.2,17.8,82.6-6.1c24.5-27,15.8-64.8,1-78.1C125.6,75.1,84.3,116.5,71,146.5z M457.8,306.7
			c12.3-28,12.3-93.9,0-118.9c-30.1,1-55.1,30.1-54.1,61.8C405.3,287.4,438.4,308.3,457.8,306.7z M156.2,432.8
			c19.9-22.5,15.8-60.2-7.6-81.6c-21.4-19.4-59.7-19.9-77.1-1.5C91.9,385.3,120,412.9,156.2,432.8z M440.4,349.1
			c-24-19.9-60.2-16.4-81.6,7.1c-19.4,20.9-20.9,57.7-3.1,76C384.8,419,422.1,384.3,440.4,349.1z M314.4,449.6
			c-1-30.1-31.1-54.6-63.3-53.1c-28.6,1.6-57.1,28.6-55.1,52.6C235.8,460.4,275.1,460.9,314.4,449.6z M175.6,346.6
			c10.2,0,18.9-8.2,18.9-18.4c0-9.7-8.2-18.4-18.4-18.4c-10.2,0-18.9,8.7-18.9,18.4C157.3,338.4,165.4,346.6,175.6,346.6z
			 M335.8,150.1c-10.2,0-18.4,7.6-18.4,17.8s8.2,18.9,18.4,18.9c10.2,0,18.4-8.2,18.4-18.4C353.7,158.3,346,150.1,335.8,150.1z
			 M369,231.2c-10.2,0-18.4,8.2-18.4,17.8c0,10.2,8.2,18.9,18.4,18.9s18.4-8.2,18.4-18.4C387.9,239.4,379.2,231.2,369,231.2z
			 M353.7,330.3c0-10.2-8.2-18.9-18.4-18.9c-9.7,0-18.4,8.2-18.4,18.4c0,10.2,8.2,18.9,18.4,18.9S353.7,340.5,353.7,330.3z
			 M161.8,249.6c0-10.2-7.6-18.4-17.8-18.4c-10.7,0-18.9,7.6-18.9,17.8c0,10.2,8.2,18.9,18.4,18.9
			C153.7,268,161.8,259.8,161.8,249.6z M255.2,344c-10.2,0-18.9,8.2-18.9,18.4s8.2,18.4,18.4,18.4c10.2,0,18.9-8.7,18.9-18.4
			C273.6,352.2,265.4,344,255.2,344z M174.6,188.4c10.2,0,18.9-8.2,18.4-18.4c0-10.2-8.2-18.4-18.4-18.4c-10.2,0-18.4,8.2-18.4,18.4
			C156.2,180.7,164.4,188.4,174.6,188.4z M273.1,134.8c0-10.2-8.2-18.4-18.4-18.4c-10.2,0-18.9,8.2-18.9,18.4s8.2,18.4,18.9,18.4
			C265.4,153.2,273.1,145,273.1,134.8z"/>
		<path fill="#FFFFFF" d="M263.4,35.3c11.7,1.5,24,3.1,35.7,5.1c5.6,1,11.2,2.5,16.3,4.1c0,30.1-27,56.7-58.7,57.1
			c-32.1,0.5-59.7-24.5-61.2-57.7c14.3-2.5,29.1-4.6,43.4-7.2c3.1-0.5,6.6-1,9.7-1C253.2,35.3,258.3,35.3,263.4,35.3z"/>
		<path fill="#FFFFFF" d="M45,227.7c2-11.2,4.6-21.9,6.1-33.1c1-6.1,3.6-7.2,9.2-6.1c27.6,5.6,48,31.6,48,59.7
			c-0.5,28.6-20.9,53.6-48.5,58.7c-4.6,1-6.6,0-7.6-5.1c-2-12.3-4.6-24.5-7.2-36.2C45,253.2,45,240.5,45,227.7z"/>
		<path fill="#FFFFFF" d="M442,147.1c-20.4,19.9-58.2,18.9-79.1-1.5c-24-22.9-26-59.7-4.6-83.2C394,82.3,422.1,110.8,442,147.1z"/>
		<path fill="#FFFFFF" d="M71,146.5c13.3-30.1,54.6-71.4,83.7-84.2c14.8,13.3,23.5,51-1,78.1C131.7,164.4,93,167.5,71,146.5z"/>
		<path fill="#FFFFFF" d="M457.8,306.7c-19.4,1-52.6-19.9-54.1-56.7c-1-32.1,24-60.7,54.1-61.8C470,213.4,470,278.7,457.8,306.7z"/>
		<path fill="#FFFFFF" d="M156.2,432.8c-36.2-19.9-64.3-47.5-84.7-83.2c16.8-18.9,55.1-17.8,77.1,1.5
			C172,372.6,176.1,410.3,156.2,432.8z"/>
		<path fill="#FFFFFF" d="M440.4,349.1c-17.9,35.2-55.1,69.9-84.7,83.2c-17.9-18.4-16.4-55.1,3.1-76.1
			C380.2,332.8,416.5,329.2,440.4,349.1z"/>
		<path fill="#FFFFFF" d="M314.4,449.6c-39.8,11.2-79.1,10.7-117.9,0c-2-24,26.5-51,55.1-52.6C283.3,395,313.4,419.5,314.4,449.6z"
			/>
		<path fill="#FFFFFF" d="M175.6,346.6c-10.2,0-18.4-8.2-18.4-18.4s8.7-18.9,18.9-18.4c9.7,0,18.4,8.7,18.4,18.4
			C194.5,338.4,185.8,347.1,175.6,346.6z"/>
		<path fill="#FFFFFF" d="M335.8,150.1c10.2,0,18.4,8.2,18.4,18.4s-8.2,18.9-18.4,18.4c-10.2,0-18.4-8.7-18.4-18.9
			C317.5,158.3,325.6,150.1,335.8,150.1z"/>
		<path fill="#FFFFFF" d="M369,231.2c10.2,0,18.9,8.2,18.4,18.4c0,10.2-8.7,18.4-18.4,18.4c-10.2,0-18.9-8.7-18.4-18.9
			C350.6,239.4,358.8,231.2,369,231.2z"/>
		<path fill="#FFFFFF" d="M353.7,330.3c0,10.2-8.7,18.4-18.4,18.4c-10.2,0-18.4-8.7-18.4-18.9c0-10.2,8.7-18.4,18.4-18.4
			C346,311.4,354.2,320,353.7,330.3z"/>
		<path fill="#FFFFFF" d="M161.8,249.6c0,10.2-8.2,18.4-18.4,18.4c-10.2,0-18.9-8.7-18.4-18.9c0-10.2,8.7-18.4,18.9-17.8
			C154.2,231.2,161.8,239.4,161.8,249.6z"/>
		<path fill="#FFFFFF" d="M255.2,344c10.2,0,18.4,8.2,18.4,18.4s-8.2,18.9-18.9,18.4c-10.2,0-18.4-8.2-18.4-18.4
			C236.9,352.2,245,344,255.2,344z"/>
		<path fill="#FFFFFF" d="M174.6,188.4c-10.2,0-18.4-8.2-18.4-18.4s8.2-18.9,18.4-18.4c10.2,0,18.4,8.2,18.4,18.4
			C193.5,180.2,184.8,188.4,174.6,188.4z"/>
		<path fill="#FFFFFF" d="M273.1,134.8c0,10.2-7.6,18.4-17.8,18.4c-10.2,0-18.9-8.2-18.9-18.4s8.7-18.9,18.9-18.4
			C264.9,116.5,273.1,124.6,273.1,134.8z"/>
	</g>
</g>
</svg>
