<?xml version="1.0" encoding="utf-8"?>
<!-- Generator: Adobe Illustrator 17.1.0, SVG Export Plug-In . SVG Version: 6.00 Build 0)  -->
<!DOCTYPE svg PUBLIC "-//W3C//DTD SVG 1.1//EN" "http://www.w3.org/Graphics/SVG/1.1/DTD/svg11.dtd">
<svg version="1.1" id="Layer_1" xmlns="http://www.w3.org/2000/svg" xmlns:xlink="http://www.w3.org/1999/xlink" x="0px" y="0px"
	 viewBox="0 -180 1224 972" enable-background="new 0 -180 1224 972" xml:space="preserve">
<g id="hPamJM.tif">
	<g>
		<path fill="#FFFFFF" d="M1012.7,79.4c-45.6-83.1-110-148.6-193-194.2C770.5-61,776.4,23.2,830.2,75.8
			C879.3,122.6,965.9,125,1012.7,79.4z M162.1,78.2c51.5,48,140.4,40.9,189.5-14c56.2-62,36.3-148.6,2.3-179
			C287.3-85.6,192.6,9.2,162.1,78.2z M1049,445.5c28.1-64.3,28.1-215.3,0-272.6c-69,2.3-126.4,69-124,141.6
			C928.5,401.1,1004.5,449.1,1049,445.5z M357.5,734.5c45.6-51.5,36.3-138.1-17.5-187.2c-49.1-44.5-136.9-45.6-176.7-3.5
			C210.1,625.7,274.5,688.9,357.5,734.5z M1009.2,542.7C954.2,497,871.1,505.2,822,559c-44.5,48-48,132.2-7,174.3
			C881.7,702.9,967.1,623.4,1009.2,542.7z M720.2,773.1c-2.3-69-71.4-125.2-145.1-121.7C509.6,655,444.1,717,448.8,772
			C540,797.7,630.1,798.9,720.2,773.1z M402,536.8c23.4,0,43.3-18.7,43.3-42.1c0-22.2-18.7-42.1-42.1-42.1
			c-23.4,0-43.3,19.9-43.3,42.1C359.9,518.1,378.6,536.8,402,536.8z M769.3,86.4c-23.4,0-42.1,17.5-42.1,40.9s18.7,43.3,42.1,43.3
			s42.1-18.7,42.1-42.1C810.3,105.1,792.7,86.4,769.3,86.4z M845.4,272.4c-23.4,0-42.1,18.7-42.1,40.9c0,23.4,18.7,43.3,42.1,43.3
			s42.1-18.7,42.1-42.1C888.7,291.1,868.8,272.4,845.4,272.4z M810.3,499.4c0-23.4-18.7-43.3-42.1-43.3c-22.2,0-42.1,18.7-42.1,42.1
			c0,23.4,18.7,43.3,42.1,43.3S810.3,522.8,810.3,499.4z M370.4,314.5c0-23.4-17.5-42.1-40.9-42.1c-24.6,0-43.3,17.5-43.3,40.9
			c0,23.4,18.7,43.3,42.1,43.3C351.7,356.6,370.4,337.9,370.4,314.5z M584.5,531c-23.4,0-43.3,18.7-43.3,42.1s18.7,42.1,42.1,42.1
			c23.4,0,43.3-19.9,43.3-42.1C626.6,549.7,607.9,531,584.5,531z M399.6,174.1c23.4,0,43.3-18.7,42.1-42.1
			c0-23.4-18.7-42.1-42.1-42.1s-42.1,18.7-42.1,42.1C357.5,156.6,376.2,174.1,399.6,174.1z M625.4,51.3c0-23.4-18.7-42.1-42.1-42.1
			c-23.4,0-43.3,18.7-43.3,42.1s18.7,42.1,43.3,42.1C607.9,93.4,625.4,74.7,625.4,51.3z"/>
		<path fill="#FFFFFF" d="M603.2-176.9c26.9,3.5,55,7,81.9,11.7c12.9,2.3,25.7,5.8,37.4,9.4c0,69-62,129.9-134.5,131
			C514.3-23.6,451.1-80.9,447.6-157c32.8-5.8,66.7-10.5,99.4-16.4c7-1.2,15.2-2.3,22.2-2.3C579.8-176.9,591.5-176.9,603.2-176.9z"/>
		<path fill="#FFFFFF" d="M102.5,264.2c4.7-25.7,10.5-50.3,14-76c2.3-14,8.2-16.4,21.1-14c63.2,12.9,110,72.5,110,136.9
			c-1.2,65.5-48,122.8-111.1,134.5c-10.5,2.3-15.2,0-17.5-11.7c-4.7-28.1-10.5-56.2-16.4-83.1C102.5,322.7,102.5,293.5,102.5,264.2z
			"/>
		<path fill="#FFFFFF" d="M1012.7,79.4c-46.8,45.6-133.4,43.3-181.3-3.5c-55-52.6-59.7-136.9-10.5-190.7
			C902.7-69.2,967.1-3.7,1012.7,79.4z"/>
		<path fill="#FFFFFF" d="M162.1,78.2c30.4-69,125.2-163.8,191.9-193c33.9,30.4,53.8,117-2.3,179
			C301.4,119.1,212.5,126.2,162.1,78.2z"/>
		<path fill="#FFFFFF" d="M1049,445.5c-44.5,2.3-120.5-45.6-124-129.9c-2.3-73.7,55-139.2,124-141.6
			C1077,231.4,1077,381.2,1049,445.5z"/>
		<path fill="#FFFFFF" d="M357.5,734.5c-83.1-45.6-147.4-108.8-194.2-190.7c38.6-43.3,126.4-40.9,176.7,3.5
			C393.8,596.5,403.2,683,357.5,734.5z"/>
		<path fill="#FFFFFF" d="M1009.2,542.7C968.2,623.4,882.8,702.9,815,733.4C774,691.2,777.5,607,822,559
			C871.1,505.2,954.2,497,1009.2,542.7z"/>
		<path fill="#FFFFFF" d="M720.2,773.1c-91.3,25.7-181.3,24.6-270.3,0c-4.7-55,60.8-117,126.4-120.5
			C648.8,647.9,717.9,704.1,720.2,773.1z"/>
		<path fill="#FFFFFF" d="M402,536.8c-23.4,0-42.1-18.7-42.1-42.1s19.9-43.3,43.3-42.1c22.2,0,42.1,19.9,42.1,42.1
			C445.3,518.1,425.4,538,402,536.8z"/>
		<path fill="#FFFFFF" d="M769.3,86.4c23.4,0,42.1,18.7,42.1,42.1s-18.7,43.3-42.1,42.1c-23.4,0-42.1-19.9-42.1-43.3
			C727.2,105.1,745.9,86.4,769.3,86.4z"/>
		<path fill="#FFFFFF" d="M845.4,272.4c23.4,0,43.3,18.7,42.1,42.1c0,23.4-19.9,42.1-42.1,42.1c-23.4,0-43.3-19.9-42.1-43.3
			C803.3,291.1,822,272.4,845.4,272.4z"/>
		<path fill="#FFFFFF" d="M810.3,499.4c0,23.4-19.9,42.1-42.1,42.1c-23.4,0-42.1-19.9-42.1-43.3c0-23.4,19.9-42.1,42.1-42.1
			C792.7,456.1,811.5,476,810.3,499.4z"/>
		<path fill="#FFFFFF" d="M370.4,314.5c0,23.4-18.7,42.1-42.1,42.1s-43.3-19.9-42.1-43.3c0-23.4,19.9-42.1,43.3-40.9
			C352.8,272.4,370.4,291.1,370.4,314.5z"/>
		<path fill="#FFFFFF" d="M584.5,531c23.4,0,42.1,18.7,42.1,42.1s-18.7,43.3-43.3,42.1c-23.4,0-42.1-18.7-42.1-42.1
			C542.4,549.7,561.1,531,584.5,531z"/>
		<path fill="#FFFFFF" d="M399.6,174.1c-23.4,0-42.1-18.7-42.1-42.1s18.7-43.3,42.1-42.1c23.4,0,42.1,18.7,42.1,42.1
			C442.9,155.4,423,174.1,399.6,174.1z"/>
		<path fill="#FFFFFF" d="M625.4,51.3c0,23.4-17.5,42.1-40.9,42.1s-43.3-18.7-43.3-42.1S561.1,8,584.5,9.2
			C606.7,9.2,625.4,27.9,625.4,51.3z"/>
	</g>
</g>
</svg>
