<?xml version="1.0" encoding="utf-8"?>
<!-- Generator: Adobe Illustrator 17.1.0, SVG Export Plug-In . SVG Version: 6.00 Build 0)  -->
<!DOCTYPE svg PUBLIC "-//W3C//DTD SVG 1.1//EN" "http://www.w3.org/Graphics/SVG/1.1/DTD/svg11.dtd">
<svg version="1.1" id="Layer_1" xmlns="http://www.w3.org/2000/svg" xmlns:xlink="http://www.w3.org/1999/xlink" x="0px" y="0px"
	 viewBox="0 0 512 512" enable-background="new 0 0 512 512" xml:space="preserve">
<path id="phone-5-icon" fill="#FFFFFF" d="M280.1,189.3c12.8,3.8,24.1,12.5,30.9,25.1s7.9,26.8,4.1,39.6l-49.8-14.8L280.1,189.3z
	 M286.9,166.3c18.6,5.6,35.2,18.2,45.1,36.7c10,18.5,11.5,39.2,6,57.9l30.7,9.1c7.9-26.5,5.7-56-8.5-82.2
	c-14.2-26.2-37.7-44.2-64.2-52.1L286.9,166.3z M302.9,112.7c32.4,9.6,61.1,31.6,78.4,63.7c17.3,32.1,20,68.1,10.4,100.5l31.4,9.4
	c12-40.4,8.7-85.4-13-125.5c-21.7-40-57.5-67.5-97.9-79.5L302.9,112.7z M318.5,451.5c-26.1,12.1-86.9,47.6-184.8-147.5
	c-97.2-193.5-32.2-223.6-8.2-236.3c0.6-0.3,35-17.6,35.1-17.6l58.1,115.7L184,183.1c-36.4,19.9,39.4,171.1,76.7,152.6
	c1.5-0.7,34.2-17.1,34.4-17.2l58.6,115.3C353.5,434,320.6,450.5,318.5,451.5z"/>
</svg>
