<?xml version="1.0" encoding="utf-8"?>
<!-- Generator: Adobe Illustrator 17.1.0, SVG Export Plug-In . SVG Version: 6.00 Build 0)  -->
<!DOCTYPE svg PUBLIC "-//W3C//DTD SVG 1.1//EN" "http://www.w3.org/Graphics/SVG/1.1/DTD/svg11.dtd">
<svg version="1.1" id="Layer_1" xmlns="http://www.w3.org/2000/svg" xmlns:xlink="http://www.w3.org/1999/xlink" x="0px" y="0px"
	 viewBox="0 0 512 512" enable-background="new 0 0 512 512" xml:space="preserve">
<g id="BuHnBX_1_">
	<g>
		<path fill="#FFFFFF" d="M220,300.8c-1.1-5.7-2.4-11.5-3.4-17.2c-1.7-9-5.1-15-16.1-13.9c-6.4,0.7-13.4-0.8-19.6-2.8
			c-4.2-1.3-7.6-5.3-11.3-8.1c4.3-1.9,8.5-5,12.9-5.3c8.2-0.5,16.5,0.6,26.4,1.1c-4.3-10.6-8.2-19.1-11.3-27.8
			c-2.4-6.5-6.3-8.2-13.1-8.8c-11.5-1-23-3.5-34.3-6.3c-3.7-0.9-6.5-4.8-9.8-7.4c0.6-1.8,1.2-3.5,1.8-5.3
			c13.6,1.3,27.2,2.5,42.8,3.9c-14.1-19.7-23.4-42.1-52.2-38.6c-1.9,0.2-3.9-0.6-5.8-0.8c-22.9-3.2-45.8-6.3-68.8-9.5
			c12.6,14.4,27.3,27,36.7,42.8c18.2,30.4,33.6,62.5,49.7,94.3c2.8,5.6,5.8,6.9,11.5,7c21.5,0.4,43,1.6,64.5,2.5
			c-3.3,4.1-6.7,8.2-8.3,10.2c19.4,15.4,38.4,30.6,57.8,45.4c2.4,1.8,7.4,2.3,10.2,1.1c10-4.3,19.5-9.9,29.5-14.5
			c10.6-4.9,13.7-11.4,9.5-23.1c-3.8-10.8-4.5-22.7-6.6-34.1c1.4-0.5,2.8-1,4.3-1.5c10.7,13,21.4,26,34.8,42.2
			c10.7-12.4,19-24.3,29.6-33.2c6.3-5.4,7.8-10.1,8.3-17.5c2.2-30,4.9-60.1,7.7-90.1c1.1-12.2,3-24.3,4.3-34.7
			c-18.4,11.5-37,22.8-55.1,34.6c-2.4,1.6-3.9,6.3-3.9,9.6c-0.4,15.3,0.1,30.6-0.2,45.8c-0.1,4.2-1.7,8.5-2.6,12.6
			c-1.1,0-2.2,0-3.3-0.1c-9.3-19.3-8.6-40.8-12-62.9c-16.8,15.3-32.3,31.5-47.6,47.8c-10.6,11.3-14,23.5-4.9,37.7
			c2.4,3.8,3,8.9,4.3,13.4c2.4,9,4.7,18,7,27c-1.1,0.4-2.2,0.9-3.3,1.3c-15.4-9.7-18.6-28.3-28.9-42.2
			C240.2,284.2,230.1,292.5,220,300.8z M232.4,378.3c14.2,20.7,28.2,41.1,43.1,62.8c38-17.5,78.9-33.5,117-60.4
			c-6.3-2-10.2-3.2-14.2-4.4c-17.1-5.4-35.4-8.6-51.2-16.6c-17.1-8.7-30.1-5.6-44.2,5.7c10.4,12,20.7,23.9,31,35.8
			c-0.7,1.3-1.4,2.5-2,3.7c-4.4-1.1-9.8-1-13-3.5c-10.1-7.9-19.3-17-29.1-25.2c-2.6-2.2-6.7-4.7-9.6-4.2
			C250.2,373.4,240.4,376.3,232.4,378.3z M266,365.2c-20.2-22.5-42.2-37.3-67.3-48.5c-31.4-14-61.6-12-91.2,4.7
			c-24.9,14.1-26,23.9-5.9,44.5c0.4,0.4,1.2,0.4,1.1,0.4c1.1-4.6,0.9-10.5,3.7-13.6c7.7-8.7,38.7-7.8,47.1,0.5
			c12.2,12,19.1,11,28.1-4.1c2-3.4,3.7-6.9,6-10c5.9-7.9,13.9-9,21.2-2.4c4.2,3.9,7.7,8.9,10.4,14c3.7,7.2,6.5,14.8,9.9,23
			C241,371.1,252.3,368.4,266,365.2z M463.1,91.5c-6,25.3-15,47.9-37,60.7c-14.4,8.4-18.4,19.4-16,36.9c12.7-6.5,25.4-11.5,36.4-19
			c15.3-10.4,26.2-23.6,16.9-44.4c-1.4-3.2,1.5-8.8,3.3-12.9C469.8,105.6,471.3,98.8,463.1,91.5z M414.5,68.3c1.4,3.1,2,5.4,3.3,7.2
			c13.9,18.3,11.3,35.6-1.1,53.9c-4.2,6.2-4,15.4-6.3,25.4c21-10.3,31.9-21.4,35.6-38.8c1.5-6.8-2.6-14.6-2.8-22
			C442.5,74.5,436.5,68.5,414.5,68.3z M134.6,87.7c-22.2,11.7-33.3,33.4-28.7,60.5c0.5,2.8,3.7,6.3,6.5,7.4
			c8.5,3.4,11.7-1.5,12.9-9.3C128.3,126.5,131.6,106.7,134.6,87.7z M176.9,407.8c0.9-6.7,1.7-13,2.6-19.3c7.9,2.2,16.3,3.4,23.5,7.1
			c1.7,0.9-0.7,9.8-1.3,15.4c2-0.7,5.9-1.4,9-3.4c11.1-7,11.2-12.1,1.1-19.7c-2.1-1.5-4.5-3.9-5-6.3c-2.6-12.6-7.7-16.5-22.1-14.1
			c-11.1,1.8-11,8.2-14.3,14.5C163,395.7,164.6,401.7,176.9,407.8z M173.8,362.7c-6,1.8-12.3,1.7-14.5,4.7
			c-9.7,13.4-18.2,27.7-26.6,40.8c6.9,4.6,12.7,11.1,19.3,12c5.9,0.8,12.7-4.4,19.6-7.1C156.6,393.3,162.6,389.8,173.8,362.7z
			 M403.1,226.8c29.9,10.2,66.2-9.3,62.8-33.7c-17.5,15.6-38.8,19.1-61.2,19.8C404.2,217.8,403.7,222,403.1,226.8z M223.1,371.8
			c-4.5-10.3-7.7-20.2-12.9-28.7c-5-8.2-13.3-7.8-19.1-0.2c-4.6,6-8.5,12.5-12.2,18.1C192.9,364.4,206.6,367.8,223.1,371.8z
			 M403.3,233.9c-6.2,18.9-4.8,20.7,14.1,23.4c15.3,2.2,21.9-11.1,32.5-19.7C433.1,236.3,418.3,235.1,403.3,233.9z M151.7,112.2
			c-16,10-21.4,26.1-23.7,44.2c10.4,4.6,15.8,2.5,17.1-9C146.5,136,149.3,124.6,151.7,112.2z M425.1,262.8
			c-9.3-1.6-17.7-3.2-29.5-5.2c1.8,6.1,1.7,13.9,5.3,16.3C409.6,279.6,419.3,274,425.1,262.8z M162.3,129.5
			c-8.9,6.5-17.6,22.2-14.6,27.9c1.1,2.1,5,2.6,7.7,3.9C157.9,149.6,160.1,139.5,162.3,129.5z"/>
		<path fill="#FFFFFF" d="M111.6,53.6c-1.1,4.1-1.4,8.5-3.3,12.1c-5.9,10.8-12.2,21.1-5.2,34c1.1,2-0.4,5.3-0.7,8
			c-1.7,15-3.3,30.1-5,45.6c-14.4,3.2-17.3,0.9-19-14.2c-3-25.3-1.1-49.3,15.8-69.9c4.6-5.6,10.1-10.4,15.2-15.6
			C110,53.6,110.8,53.6,111.6,53.6z"/>
		<path fill="#FFFFFF" d="M50.4,100.6c6.9-14.4,14-28.7,33-32.7c-2,3-4.3,5.9-6,9c-2.8,5.1-7.1,10.3-7.3,15.6
			c-0.9,19.3-0.4,38.6-0.4,58.6c-7.2-0.9-16.1-2.6-16.3-15.8c0-3.7-2-7.4-3-11.1C50.4,116.3,50.4,108.5,50.4,100.6z"/>
		<path fill="#FFFFFF" d="M473.9,164.1c-3,6.1-5.8,12.4-9,18.4c-2.1,3.9-3.9,9-7.4,11.1c-15.5,9.8-32.1,15.8-51,12
			c-0.7-8.7,1.8-13,11.2-15.6c19-5.2,36.3-14.3,49.1-30.2c1.8-2.2,4.7-3.5,7.1-5.2C473.9,157.8,473.9,161,473.9,164.1z"/>
		<path fill="#FFFFFF" d="M139.8,448.7c1.5-2.7,2.9-5.4,3.9-7.4c-10.8-22.9-26.6-26-47.8-9.1c-0.1,0.7-0.7,4.8-1.2,8.9
			c-1.1,0.2-2.3,0.4-3.4,0.7c-1.1-5.8-4.7-12.9-2.5-17c3-5.8,9.8-12,16-13.3c8.8-1.7,19.4-1.3,27.5,2.2c8.2,3.6,15.7,11.1,20.8,18.7
			c1.6,2.4-5.5,10.7-8.6,16.3C143,448.7,141.4,448.7,139.8,448.7z"/>
		<path fill="#FFFFFF" d="M220,300.8c10.1-8.3,20.2-16.6,30.9-25.3c10.2,13.9,13.5,32.5,28.9,42.2c1.1-0.4,2.2-0.9,3.3-1.3
			c-2.3-9-4.6-18-7-27c-1.2-4.6-1.8-9.6-4.3-13.4c-9.1-14.2-5.7-26.4,4.9-37.7c15.3-16.3,30.8-32.6,47.6-47.8
			c3.5,22.1,2.7,43.5,12,62.9c1.1,0,2.2,0,3.3,0.1c0.9-4.2,2.5-8.4,2.6-12.6c0.3-15.3-0.2-30.6,0.2-45.8c0.1-3.3,1.5-8,3.9-9.6
			c18.1-11.9,36.7-23.2,55.1-34.6c-1.3,10.4-3.2,22.5-4.3,34.7c-2.8,30-5.6,60-7.7,90.1c-0.5,7.4-2,12.1-8.3,17.5
			c-10.6,9-18.9,20.9-29.6,33.2c-13.4-16.3-24.1-29.3-34.8-42.2c-1.4,0.5-2.8,1-4.3,1.5c2.1,11.4,2.8,23.3,6.6,34.1
			c4.1,11.7,1.1,18.2-9.5,23.1c-10,4.6-19.4,10.2-29.5,14.5c-2.8,1.2-7.8,0.7-10.2-1.1c-19.5-14.8-38.5-30.1-57.9-45.5
			c1.6-2,5-6.1,8.3-10.2L220,300.8z"/>
		<path fill="#FFFFFF" d="M220.4,300.5c-21.5-0.9-43-2-64.5-2.5c-5.8-0.1-8.7-1.3-11.5-7c-16-31.7-31.5-63.8-49.7-94.3
			C85.3,181,70.6,168.4,58,154c23,3.2,45.9,6.3,68.8,9.4c2,0.3,3.9,1.1,5.8,0.8c28.8-3.5,38.1,19,52.2,38.6
			c-15.6-1.4-29.1-2.7-42.8-3.9c-0.6,1.8-1.2,3.5-1.8,5.3c3.3,2.6,6.1,6.5,9.8,7.4c11.3,2.8,22.8,5.3,34.3,6.3
			c6.8,0.6,10.8,2.4,13.1,8.8c3.2,8.7,7,17.3,11.3,27.8c-9.8-0.5-18.2-1.7-26.4-1.1c-4.4,0.3-8.6,3.5-12.9,5.3
			c3.7,2.8,7.1,6.7,11.3,8.1c6.2,2,13.2,3.5,19.6,2.8c11.1-1.1,14.5,4.9,16.1,13.9c1.1,5.8,2.3,11.5,3.4,17.2
			C220,300.8,220.4,300.5,220.4,300.5z"/>
		<path fill="#FFFFFF" d="M232.4,378.3c8.1-2,17.8-4.8,27.7-6.5c2.9-0.5,6.9,2,9.6,4.2c9.8,8.2,19,17.4,29.1,25.2
			c3.3,2.6,8.6,2.4,13,3.5c0.7-1.3,1.4-2.5,2-3.7c-10.3-11.9-20.6-23.8-31-35.8c14.1-11.3,27.1-14.4,44.2-5.7
			c15.8,8,34,11.3,51.2,16.6c4,1.3,8,2.5,14.2,4.4c-38.2,26.9-79.1,43-117,60.4C260.6,419.4,246.6,399,232.4,378.3z"/>
		<path fill="#FFFFFF" d="M266,365.2c-13.7,3.2-25,5.8-36.8,8.5c-3.5-8.2-6.2-15.9-9.9-23c-2.7-5.1-6.2-10.1-10.4-14
			c-7.3-6.7-15.2-5.5-21.2,2.4c-2.3,3.1-4,6.7-6,10c-9,15.1-15.9,16.1-28.1,4.1c-8.5-8.3-39.5-9.2-47.1-0.5c-2.8,3.2-2.5,9-3.7,13.6
			c0.1,0-0.7,0-1.1-0.4c-20.2-20.6-19-30.4,5.9-44.5c29.5-16.7,59.8-18.7,91.2-4.7C223.8,327.9,245.9,342.7,266,365.2z M125.1,321.8
			c-13.3-2-18.5,7.3-24.6,15.3c4.8,0.3,9.5,0.7,11.8,0.9C117.2,331.8,120.8,327.2,125.1,321.8z"/>
		<path fill="#FFFFFF" d="M463.1,91.5c8.2,7.3,6.7,14.1,3.6,21.3c-1.8,4.1-4.7,9.7-3.3,12.9c9.3,20.8-1.6,34-16.9,44.4
			c-11,7.5-23.8,12.5-36.4,19c-2.4-17.6,1.6-28.5,16-36.9C448.1,139.3,457.1,116.8,463.1,91.5z"/>
		<path fill="#FFFFFF" d="M414.5,68.3c22,0.2,28,6.1,28.7,25.7c0.3,7.4,4.3,15.2,2.8,22c-3.7,17.4-14.5,28.5-35.6,38.8
			c2.3-10,2.1-19.2,6.3-25.4c12.4-18.2,15-35.6,1.1-53.9C416.5,73.8,415.9,71.4,414.5,68.3z"/>
		<path fill="#FFFFFF" d="M134.6,87.7c-3,18.9-6.3,38.7-9.3,58.6c-1.2,7.9-4.4,12.8-12.9,9.3c-2.8-1.1-6.1-4.6-6.5-7.4
			C101.3,121.1,112.4,99.5,134.6,87.7z"/>
		<path fill="#FFFFFF" d="M176.9,407.8c-12.2-6.1-13.9-12.1-6.6-25.8c3.3-6.3,3.2-12.7,14.3-14.5c14.4-2.3,19.5,1.6,22.1,14.1
			c0.5,2.4,2.8,4.7,5,6.3c10.1,7.6,10.1,12.6-1.1,19.7c-3.1,2-7,2.6-9,3.4c0.6-5.6,3-14.5,1.3-15.4c-7.2-3.7-15.5-5-23.5-7.1
			C178.6,394.7,177.7,401,176.9,407.8z"/>
		<path fill="#FFFFFF" d="M173.8,362.7c-11.2,27.1-17.2,30.6-2.2,50.4c-6.9,2.7-13.7,8-19.6,7.1c-6.5-0.9-12.3-7.4-19.3-12
			c8.5-13.2,16.9-27.4,26.6-40.8C161.5,364.4,167.9,364.5,173.8,362.7z"/>
		<path fill="#FFFFFF" d="M403.1,226.8c0.6-4.8,1.1-9,1.6-13.9c22.4-0.7,43.6-4.1,61.2-19.8C469.4,217.4,433,237,403.1,226.8z"/>
		<path fill="#FFFFFF" d="M223.1,371.8c-16.5-4.1-30.1-7.4-44.3-10.9c3.7-5.6,7.6-12.1,12.2-18.1c5.8-7.6,14.1-8,19.1,0.2
			C215.4,351.6,218.5,361.5,223.1,371.8z"/>
		<path fill="#FFFFFF" d="M403.3,233.9c15,1.2,29.8,2.4,46.6,3.7c-10.6,8.5-17.1,21.9-32.5,19.7
			C398.5,254.6,397.1,252.8,403.3,233.9z"/>
		<path fill="#FFFFFF" d="M151.7,112.2c-2.4,12.4-5.2,23.7-6.5,35.2c-1.4,11.5-6.7,13.6-17.1,9C130.3,138.3,135.7,122.3,151.7,112.2
			z"/>
		<path fill="#FFFFFF" d="M425.1,262.8c-5.9,11.3-15.6,16.9-24.1,11.1c-3.6-2.4-3.5-10.3-5.3-16.3
			C407.4,259.6,415.9,261.1,425.1,262.8z"/>
		<path fill="#FFFFFF" d="M162.3,129.5c-2.2,10-4.4,20-7,31.7c-2.6-1.3-6.6-1.8-7.7-3.9C144.7,151.8,153.4,136.1,162.3,129.5z"/>
		<path fill="#FFFFFF" d="M125.1,321.8c-4.3,5.4-7.9,10-12.8,16.1c-2.4-0.2-7-0.5-11.8-0.9C106.6,329.1,111.8,319.8,125.1,321.8z"/>
	</g>
</g>
</svg>
