<?xml version="1.0" encoding="utf-8"?>
<!-- Generator: Adobe Illustrator 17.1.0, SVG Export Plug-In . SVG Version: 6.00 Build 0)  -->
<!DOCTYPE svg PUBLIC "-//W3C//DTD SVG 1.1//EN" "http://www.w3.org/Graphics/SVG/1.1/DTD/svg11.dtd">
<svg version="1.1" id="Layer_1" xmlns="http://www.w3.org/2000/svg" xmlns:xlink="http://www.w3.org/1999/xlink" x="0px" y="0px"
	 viewBox="0 -180 1224 972" enable-background="new 0 -180 1224 972" xml:space="preserve">
<g id="BuHnBX_1_">
	<g>
		<path fill="#FFFFFF" d="M497,434.3c-2.8-14.1-5.8-28.2-8.4-42.4c-4.1-22.1-12.5-36.8-39.7-34.1c-15.8,1.6-32.9-2-48.2-6.9
			c-10.3-3.3-18.6-13-27.8-19.9c10.6-4.6,20.9-12.4,31.7-13.1c20.2-1.3,40.7,1.5,64.9,2.8c-10.7-26.1-20.1-47-27.9-68.5
			c-5.8-15.9-15.5-20.3-32.3-21.7c-28.4-2.4-56.6-8.5-84.3-15.4c-9-2.2-16.1-11.9-24-18.2c1.5-4.4,2.9-8.7,4.4-13.1
			c33.5,3.1,67,6.1,105.2,9.6c-34.7-48.4-57.5-103.7-128.4-95.1c-4.6,0.6-9.5-1.4-14.3-2C211.5,88.4,155.2,80.7,98.5,73
			c31.1,35.4,67.2,66.4,90.3,105.2c44.8,74.9,82.8,153.9,122.2,232c7,13.8,14.2,16.9,28.4,17.2c52.9,1.1,105.7,3.9,158.6,6.1
			c-8.2,10.1-16.5,20.3-20.5,25.2c47.7,37.8,94.5,75.4,142.2,111.8c5.9,4.5,18.3,5.6,25.2,2.7c24.7-10.6,48.1-24.4,72.5-35.7
			c26.2-12,33.6-28.1,23.5-56.9c-9.3-26.6-11.1-55.9-16.2-84c3.5-1.2,7-2.5,10.5-3.7c26.3,31.9,52.7,63.9,85.7,103.9
			c26.4-30.5,46.7-59.7,72.9-81.8c15.6-13.2,19.1-24.8,20.4-43c5.3-73.9,12.1-147.8,19-221.6c2.8-30,7.5-59.7,10.7-85.4
			c-45.4,28.3-91.1,56-135.7,85.2c-6,3.9-9.5,15.5-9.7,23.7c-0.9,37.6,0.2,75.2-0.6,112.8c-0.2,10.4-4.2,20.8-6.4,31.1
			c-2.7-0.1-5.5-0.1-8.2-0.2c-22.9-47.6-21.1-100.3-29.6-154.7c-41.3,37.7-79.4,77.5-117.1,117.7c-26.1,27.8-34.4,57.9-12.1,92.8
			c6,9.4,7.5,21.8,10.5,32.9c5.9,22.1,11.5,44.3,17.2,66.5c-2.7,1-5.5,2.1-8.2,3.1c-37.8-23.8-45.8-69.6-71-103.8
			C546.9,393.5,522,413.9,497,434.3z M527.5,625c35,51,69.4,101.1,106.1,154.6c93.4-43,194.2-82.5,288-148.7
			c-15.4-4.8-25.2-7.8-35-10.9c-42.2-13.2-87.1-21.1-126-40.9c-42-21.4-74-13.7-108.8,14.1c25.6,29.5,50.9,58.7,76.3,88
			c-1.7,3.1-3.4,6.1-5,9.2c-10.8-2.7-24-2.4-32.1-8.7c-24.9-19.5-47.4-41.8-71.7-62.1c-6.5-5.4-16.4-11.6-23.6-10.4
			C571.3,613,547.4,620.1,527.5,625z M610.4,592.8c-49.6-55.4-103.9-91.8-165.5-119.3c-77.3-34.4-151.7-29.5-224.4,11.5
			c-61.3,34.6-64.1,58.9-14.5,109.4c1,1,3,1.1,2.7,1c2.8-11.4,2.1-25.8,9-33.5c18.9-21.4,95.2-19.1,116,1.3
			c30.1,29.5,47,27,69.2-10.2c4.9-8.3,9.1-17.1,14.8-24.7c14.6-19.4,34.2-22.2,52.1-5.8c10.4,9.5,19,21.9,25.6,34.4
			c9.2,17.6,15.9,36.5,24.4,56.7C548.8,607.1,576.6,600.6,610.4,592.8z M1095.2-80.8c-14.8,62.3-36.9,117.8-91,149.4
			c-35.5,20.7-45.2,47.7-39.4,90.9c31.2-15.9,62.5-28.2,89.6-46.7c37.6-25.7,64.4-58.1,41.6-109.3c-3.5-7.9,3.6-21.6,8-31.8
			C1111.7-46.2,1115.6-62.8,1095.2-80.8z M975.7-137.8c3.4,7.6,4.9,13.4,8.2,17.7c34.2,45.1,27.9,87.7-2.6,132.7
			c-10.4,15.3-9.8,37.9-15.5,62.5c51.8-25.3,78.5-52.7,87.6-95.4c3.6-16.7-6.4-35.9-7-54.1C1044.6-122.7,1029.9-137.4,975.7-137.8z
			 M287-90.1C232.4-61.2,205-8,216.3,58.8c1.2,7,9.2,15.6,16.1,18.3c21,8.4,28.9-3.6,31.8-23C271.5,5.2,279.6-43.5,287-90.1z
			 M390.9,697.5c2.2-16.6,4.3-32.1,6.3-47.6c19.5,5.3,40.1,8.4,57.8,17.4c4.1,2.1-1.8,24-3.3,37.9c5-1.8,14.5-3.5,22.1-8.3
			c27.4-17.3,27.6-29.8,2.7-48.4c-5.2-3.8-11-9.7-12.2-15.5c-6.4-30.9-19-40.5-54.3-34.8c-27.4,4.4-27.1,20.2-35.3,35.7
			C356.7,667.8,360.8,682.4,390.9,697.5z M383.5,586.5c-14.7,4.4-30.3,4.2-35.6,11.5c-23.8,33-44.8,68.1-65.5,100.5
			c17.1,11.3,31.3,27.2,47.5,29.5c14.6,2,31.3-10.8,48.2-17.5C341.1,661.8,355.9,653.2,383.5,586.5z M947.7,252.1
			c73.5,25.2,163-22.9,154.5-83c-43.1,38.4-95.4,47-150.5,48.7C950.3,229.9,949.1,240.3,947.7,252.1z M504.6,609
			c-11.1-25.4-18.9-49.6-31.8-70.7c-12.4-20.2-32.8-19.2-47.1-0.5c-11.2,14.8-20.9,30.8-30,44.5C430.5,590.8,464,599,504.6,609z
			 M948.1,269.6c-15.2,46.6-11.8,50.9,34.8,57.5c37.7,5.4,53.9-27.4,79.9-48.4C1021.5,275.5,985.1,272.6,948.1,269.6z M329-29.8
			C289.7-5.1,276.3,34.4,270.8,79c25.6,11.3,38.8,6.2,42.2-22.1C316.3,28.6,323.2,0.7,329-29.8z M1001.9,340.6
			c-22.8-4-43.6-7.8-72.5-12.9c4.4,14.9,4.2,34.3,13.1,40.2C963.6,382,987.5,368.3,1001.9,340.6z M355,12.8
			c-21.9,16.1-43.3,54.6-36,68.6c2.6,5.1,12.4,6.4,18.9,9.5C344.2,62.1,349.6,37.4,355,12.8z"/>
		<path fill="#FFFFFF" d="M230.3-174.2c-2.6,10-3.5,20.9-8.2,29.7c-14.5,26.6-30.1,52-12.8,83.7c2.6,4.8-1.1,13-1.8,19.6
			c-4.1,37-8.1,74.1-12.3,112.2c-35.5,7.8-42.5,2.1-46.8-34.9c-7.3-62.2-2.6-121.3,38.9-172.1c11.2-13.7,24.8-25.6,37.3-38.3
			C226.4-174.2,228.4-174.2,230.3-174.2z"/>
		<path fill="#FFFFFF" d="M79.8-58.4c17-35.5,34.4-70.6,81.1-80.4c-4.9,7.3-10.5,14.4-14.7,22.1c-6.8,12.5-17.4,25.3-18,38.4
			c-2.2,47.4-0.9,95-0.9,144.2c-17.8-2.2-39.6-6.3-40.1-39c-0.1-9.2-4.9-18.3-7.5-27.4C79.8-19.8,79.8-39.1,79.8-58.4z"/>
		<path fill="#FFFFFF" d="M1121.8,97.9c-7.3,15.1-14.2,30.4-22.1,45.2c-5.2,9.7-9.7,22.1-18.2,27.4c-38.1,24-79.1,38.9-125.4,29.6
			c-1.7-21.4,4.5-32,27.5-38.3c46.7-12.8,89.3-35.1,120.8-74.2c4.4-5.4,11.5-8.6,17.4-12.8C1121.8,82.4,1121.8,90.1,1121.8,97.9z"/>
		<path fill="#FFFFFF" d="M299.8,798.3c3.6-6.7,7.1-13.4,9.7-18.1c-26.5-56.3-65.4-64.1-117.6-22.4c-0.2,1.8-1.6,11.8-2.9,21.9
			c-2.8,0.6-5.6,1.1-8.4,1.7c-2.6-14.2-11.5-31.8-6.2-41.8c7.5-14.3,24.2-29.6,39.4-32.7c21.6-4.3,47.7-3.3,67.7,5.3
			c20.3,8.8,38.7,27.3,51.2,46.1c4,6-13.5,26.3-21.2,40.1C307.5,798.3,303.6,798.3,299.8,798.3z"/>
		<path fill="#FFFFFF" d="M497.1,434.3c24.9-20.4,49.8-40.8,76.1-62.2c25.1,34.2,33.2,80,71,103.8c2.7-1,5.5-2.1,8.2-3.1
			c-5.7-22.2-11.3-44.4-17.2-66.5c-3-11.2-4.5-23.6-10.5-32.9c-22.3-34.9-14.1-64.9,12.1-92.8c37.7-40.2,75.8-80.1,117.1-117.7
			c8.5,54.4,6.7,107.1,29.6,154.7c2.7,0.1,5.5,0.1,8.2,0.2c2.2-10.4,6.2-20.7,6.4-31.1c0.7-37.6-0.4-75.2,0.6-112.8
			c0.2-8.2,3.7-19.8,9.7-23.7c44.6-29.2,90.3-57,135.7-85.2c-3.3,25.6-7.9,55.4-10.7,85.4c-6.9,73.8-13.7,147.7-19,221.6
			c-1.3,18.1-4.9,29.8-20.4,43c-26.2,22.2-46.4,51.4-72.9,81.8c-33-40.1-59.4-72-85.7-103.9c-3.5,1.2-7,2.5-10.5,3.7
			c5.1,28.1,6.9,57.4,16.2,84c10,28.9,2.7,44.9-23.5,56.9c-24.5,11.2-47.8,25-72.5,35.7c-6.9,3-19.3,1.8-25.2-2.7
			C572,534,525.2,496.4,477.5,458.6c4-4.9,12.3-15.1,20.5-25.2C498,433.4,497.1,434.3,497.1,434.3z"/>
		<path fill="#FFFFFF" d="M498,433.4c-52.9-2.2-105.7-4.9-158.6-6.1C325.2,427,318,424,311,410.1c-39.4-78.1-77.4-157.1-122.2-232
			c-23.2-38.8-59.3-69.8-90.3-105.2c56.6,7.8,113,15.5,169.4,23.2c4.8,0.7,9.7,2.6,14.3,2c70.9-8.6,93.7,46.7,128.4,95.1
			c-38.3-3.5-71.7-6.6-105.2-9.6c-1.5,4.4-2.9,8.7-4.4,13.1c8,6.3,15.1,16,24,18.2c27.7,6.9,56,13,84.3,15.4
			c16.8,1.4,26.5,5.9,32.3,21.7c7.8,21.5,17.2,42.5,27.9,68.5c-24.2-1.3-44.7-4.1-64.9-2.8c-10.8,0.7-21.1,8.5-31.7,13.1
			c9.2,6.8,17.5,16.6,27.8,19.9c15.3,4.9,32.5,8.5,48.2,6.9c27.3-2.7,35.6,12.1,39.7,34.1c2.6,14.2,5.6,28.3,8.4,42.4
			C497.1,434.3,498,433.4,498,433.4z"/>
		<path fill="#FFFFFF" d="M527.5,625c19.9-4.9,43.8-11.9,68.2-15.9c7.2-1.2,17.1,5,23.6,10.4c24.2,20.3,46.8,42.7,71.7,62.1
			c8,6.3,21.2,6,32.1,8.7c1.7-3.1,3.4-6.1,5-9.2c-25.3-29.2-50.7-58.5-76.3-88c34.8-27.8,66.8-35.5,108.8-14.1
			c38.9,19.8,83.7,27.7,126,40.9c9.8,3.1,19.6,6.1,35,10.9c-93.9,66.2-194.6,105.7-288,148.7C596.9,726.1,562.5,676,527.5,625z"/>
		<path fill="#FFFFFF" d="M610.4,592.8c-33.8,7.8-61.6,14.3-90.6,21c-8.5-20.2-15.2-39.2-24.4-56.7c-6.6-12.5-15.2-24.9-25.6-34.4
			c-17.9-16.4-37.5-13.6-52.1,5.8c-5.7,7.6-9.9,16.5-14.8,24.7c-22.2,37.2-39.1,39.7-69.2,10.2c-20.9-20.4-97.1-22.7-116-1.3
			c-6.9,7.8-6.2,22.2-9,33.5c0.3,0.1-1.7,0-2.7-1c-49.6-50.6-46.8-74.8,14.5-109.4c72.6-41,147.1-46,224.4-11.5
			C506.5,501,560.8,537.4,610.4,592.8z M263.6,485.8c-32.8-4.8-45.5,18-60.5,37.6c11.8,0.8,23.3,1.7,29.1,2.1
			C244.1,510.4,253,499.1,263.6,485.8z"/>
		<path fill="#FFFFFF" d="M1095.2-80.8c20.3,18,16.5,34.6,8.8,52.5c-4.4,10.1-11.5,23.9-8,31.8c22.9,51.3-4,83.7-41.6,109.3
			c-27.1,18.5-58.5,30.8-89.6,46.7c-5.8-43.2,4-70.2,39.4-90.9C1058.3,36.9,1080.5-18.5,1095.2-80.8z"/>
		<path fill="#FFFFFF" d="M975.7-137.8c54.2,0.4,68.9,15.1,70.6,63.3c0.7,18.2,10.6,37.4,7,54.1c-9.1,42.7-35.8,70.1-87.6,95.4
			c5.7-24.5,5.1-47.2,15.5-62.5c30.5-44.9,36.8-87.6,2.6-132.7C980.6-124.4,979.2-130.2,975.7-137.8z"/>
		<path fill="#FFFFFF" d="M287-90.1c-7.4,46.6-15.5,95.3-22.9,144.2c-2.9,19.4-10.9,31.5-31.8,23c-6.9-2.8-14.9-11.3-16.1-18.3
			C205-8,232.4-61.2,287-90.1z"/>
		<path fill="#FFFFFF" d="M390.9,697.5c-30.1-15.1-34.2-29.7-16.2-63.5c8.2-15.5,7.9-31.3,35.3-35.7c35.4-5.7,47.9,4,54.3,34.8
			c1.2,5.8,7,11.6,12.2,15.5c24.9,18.6,24.8,31.1-2.7,48.4c-7.6,4.8-17.2,6.5-22.1,8.3c1.4-13.9,7.4-35.8,3.3-37.9
			c-17.6-9-38.2-12.2-57.8-17.4C395.1,665.4,393.1,680.9,390.9,697.5z"/>
		<path fill="#FFFFFF" d="M383.5,586.5c-27.6,66.7-42.4,75.3-5.5,124c-16.9,6.7-33.6,19.6-48.2,17.5c-16.1-2.3-30.3-18.1-47.5-29.5
			c20.8-32.4,41.7-67.5,65.5-100.5C353.2,590.7,368.9,590.9,383.5,586.5z"/>
		<path fill="#FFFFFF" d="M947.7,252.1c1.4-11.8,2.6-22.1,4-34.3c55.1-1.6,107.4-10.2,150.5-48.7
			C1110.7,229.1,1021.2,277.2,947.7,252.1z"/>
		<path fill="#FFFFFF" d="M504.6,609c-40.7-10-74.1-18.2-108.9-26.7c9.1-13.7,18.8-29.7,30-44.5c14.2-18.8,34.7-19.7,47.1,0.5
			C485.7,559.3,493.5,583.6,504.6,609z"/>
		<path fill="#FFFFFF" d="M948.1,269.6c37,3,73.4,5.9,114.6,9.2c-26,21-42.1,53.8-79.9,48.4C936.3,320.5,932.9,316.2,948.1,269.6z"
			/>
		<path fill="#FFFFFF" d="M329-29.8c-5.8,30.4-12.7,58.3-16.1,86.7c-3.4,28.3-16.6,33.4-42.2,22.1C276.3,34.4,289.7-5.1,329-29.8z"
			/>
		<path fill="#FFFFFF" d="M1001.9,340.6c-14.4,27.8-38.3,41.5-59.4,27.3c-8.8-5.9-8.7-25.3-13.1-40.2
			C958.2,332.8,979.1,336.5,1001.9,340.6z"/>
		<path fill="#FFFFFF" d="M355,12.8c-5.4,24.6-10.8,49.2-17.2,78.1c-6.5-3.1-16.2-4.4-18.9-9.5C311.7,67.5,333.1,28.9,355,12.8z"/>
		<path fill="#FFFFFF" d="M263.6,485.8c-10.5,13.3-19.5,24.6-31.4,39.6c-5.8-0.4-17.3-1.2-29.1-2.1C218,503.8,230.7,481,263.6,485.8
			z"/>
	</g>
</g>
</svg>
