<?xml version="1.0" encoding="utf-8"?>
<!-- Generator: Adobe Illustrator 17.1.0, SVG Export Plug-In . SVG Version: 6.00 Build 0)  -->
<!DOCTYPE svg PUBLIC "-//W3C//DTD SVG 1.1//EN" "http://www.w3.org/Graphics/SVG/1.1/DTD/svg11.dtd">
<svg version="1.1" id="Layer_1" xmlns="http://www.w3.org/2000/svg" xmlns:xlink="http://www.w3.org/1999/xlink" x="0px" y="0px"
	 viewBox="0 0 512 512" enable-background="new 0 0 512 512" xml:space="preserve">
<path id="newspaper-3-icon" fill="#FFFFFF" d="M285.8,191.5l-10.5-44.1h11.5l5.5,30.6l6.1-30.6h11.2l5.4,30l5.7-30h11l-11.4,44.1
	h-11.4l-5.4-29.2l-6.2,29.2H285.8z M272.6,182.5h-17.7v-9.2h15.9v-8.9h-15.9v-8h16.8v-9h-27.6v44.1h28.5L272.6,182.5L272.6,182.5z
	 M340.5,270.1h64.8v-20h-64.8V270.1z M346.7,183.1c-3.4,0-7.4-1-10.6-2.6l-0.6-0.3l-2.2,9l0.3,0.2c2.3,1.3,7.2,2.7,12.5,2.7
	c13.2,0,17.9-7.5,17.9-13.9c0-6.2-3.7-10.4-11.5-13.3c-5.8-2.2-7.7-3.3-7.7-5.6c0-2.2,2.3-3.7,5.8-3.7c3.1,0,6.1,0.7,8.8,2l0.5,0.3
	l2.4-8.9l-0.4-0.2c-3.3-1.5-7-2.2-11.2-2.2c-10.1,0-16.8,5.4-16.8,13.5c0,6,4.1,10.4,12.2,13.2c5.2,1.8,6.9,3.3,6.9,5.6
	C353,181.6,350.7,183.1,346.7,183.1z M340.5,308.1h64.8v-20h-64.8V308.1z M209.9,161.3l15.7,30.2h11v-44.1h-10v27.1l-14.6-27.1H200
	v44.1h10V161.3z M320.7,308.1v-58h-78.3v58H320.7z M462,94l0,289.3c0,19.2-15.5,34.7-34.7,34.7H84.7C65.5,418,50,402.5,50,383.3
	L50,124h30.4v245.9c0,13.2,20,13.2,20,0V94H462z M432,124H130v248H432L432,124L432,124z M405.3,212.7H157.7v20h247.7V212.7z
	 M405.3,326.1H157.7v20h247.7V326.1z M223.5,288.1h-65.8v20h65.8V288.1z M223.5,250.1h-65.8v20h65.8V250.1z"/>
</svg>
