<?xml version="1.0" encoding="utf-8"?>
<!-- Generator: Adobe Illustrator 17.1.0, SVG Export Plug-In . SVG Version: 6.00 Build 0)  -->
<!DOCTYPE svg PUBLIC "-//W3C//DTD SVG 1.1//EN" "http://www.w3.org/Graphics/SVG/1.1/DTD/svg11.dtd">
<svg version="1.1" id="Layer_1" xmlns="http://www.w3.org/2000/svg" xmlns:xlink="http://www.w3.org/1999/xlink" x="0px" y="0px"
	 viewBox="0 0 512 512" enable-background="new 0 0 512 512" xml:space="preserve">
<path id="facebook-square-rounded-icon" fill="#FFFFFF" d="M411.9,50h-312c-27.6,0-50,22.4-50,50v312c0,27.6,22.4,50,50,50h312
	c27.6,0,50-22.4,50-50V100C461.9,72.4,439.6,50,411.9,50z M323.7,160.7c0,0-22.9,0-32,0c-11.3,0-13.6,4.6-13.6,16.3
	c0,9.7,0,28.2,0,28.2h45.6l-4.4,49.6h-41.2v148h-59.1V255.4h-30.7v-50.2h30.7c0,0,0-7.2,0-39.5c0-37.1,19.8-56.5,63.8-56.5
	c7.2,0,40.9,0,40.9,0V160.7z"/>
</svg>
