<?xml version="1.0" encoding="utf-8"?>
<!-- Generator: Adobe Illustrator 17.1.0, SVG Export Plug-In . SVG Version: 6.00 Build 0)  -->
<!DOCTYPE svg PUBLIC "-//W3C//DTD SVG 1.1//EN" "http://www.w3.org/Graphics/SVG/1.1/DTD/svg11.dtd">
<svg version="1.1" id="Layer_1" xmlns="http://www.w3.org/2000/svg" xmlns:xlink="http://www.w3.org/1999/xlink" x="0px" y="0px"
	 viewBox="0 0 512 512" enable-background="new 0 0 512 512" xml:space="preserve">
<path id="help-5-icon" fill="#FFFFFF" d="M256,65.4c-108.8,0-206,73.2-206,173.4c0,35.5,12.7,70.4,35.1,97.5
	c0.9,31.7-17.6,77.2-34.2,110.4c44.7-8.1,108.2-26.1,137-44c158.6,38.9,274.1-59,274.1-163.9C462,138.1,364.1,65.4,256,65.4z
	 M261.7,343.2c-12.3,0-22.2-9.9-22.2-22.2c0-12.3,9.9-22.2,22.2-22.2c12.3,0,22.2,9.9,22.2,22.2C283.9,333.3,274,343.2,261.7,343.2z
	 M279.2,277.6v4c0,0-33.3,0-36.6,0v-4c0-11.3,1.6-25.8,14.8-38.4c13.1-12.6,29.5-23,29.5-38.8c0-17.4-12.1-26.6-27.3-26.6
	c-25.4,0-27.1,26.3-27.7,32.1h-35.6c0.9-27.5,12.6-65.9,63.5-65.9c44.1,0,64,29.6,64,57.3C323.8,241.4,279.2,249.1,279.2,277.6z"/>
</svg>
