<?xml version="1.0" encoding="utf-8"?>
<!-- Generator: Adobe Illustrator 17.1.0, SVG Export Plug-In . SVG Version: 6.00 Build 0)  -->
<!DOCTYPE svg PUBLIC "-//W3C//DTD SVG 1.1//EN" "http://www.w3.org/Graphics/SVG/1.1/DTD/svg11.dtd">
<svg version="1.1" id="Layer_1" xmlns="http://www.w3.org/2000/svg" xmlns:xlink="http://www.w3.org/1999/xlink" x="0px" y="0px"
	 viewBox="0 0 512 512" enable-background="new 0 0 512 512" xml:space="preserve">
<path id="rss-square-rounded-icon" fill="#FFFFFF" d="M412,50H100c-27.6,0-50,22.4-50,50v312c0,27.6,22.4,50,50,50h312
	c27.6,0,50-22.4,50-50V100C462,72.4,439.6,50,412,50z M151,400.2c-21.6,0-39-17.5-39-39c0-21.6,17.5-39,39-39s39,17.5,39,39
	C190,382.7,172.6,400.2,151,400.2z M244.3,400.2c-0.7-72.6-59.7-131.5-132.3-132.3v-57.8c104.7,0.7,189.4,85.4,190.1,190.1H244.3z
	 M342.2,400.2c-0.2-61.5-24.2-119.3-67.7-162.9C231,193.9,173.4,169.9,112,169.6v-57.8c159,0.6,287.7,129.4,288,288.4H342.2z"/>
</svg>
