<?xml version="1.0" encoding="utf-8"?>
<!-- Generator: Adobe Illustrator 17.1.0, SVG Export Plug-In . SVG Version: 6.00 Build 0)  -->
<!DOCTYPE svg PUBLIC "-//W3C//DTD SVG 1.1//EN" "http://www.w3.org/Graphics/SVG/1.1/DTD/svg11.dtd">
<svg version="1.1" id="Layer_1" xmlns="http://www.w3.org/2000/svg" xmlns:xlink="http://www.w3.org/1999/xlink" x="0px" y="0px"
	 viewBox="0 0 512 512" enable-background="new 0 0 512 512" xml:space="preserve">
<path id="wrench-icon" fill="#FFFFFF" d="M447.1,375.1L281.4,209.4c-11.4-11.4-17.2-27.1-16-43.1c2.3-30.3-8.1-61.5-31.3-84.6
	C204,51.4,160.4,42.9,122.5,55.9l68.6,68.6c1.6,26.8-39.8,68.2-66.6,66.6l-68.6-68.6c-13.1,37.8-4.5,81.4,25.7,111.6
	c23.2,23.2,54.3,33.6,84.6,31.3c16-1.2,31.8,4.6,43.1,16l165.7,165.7c19.9,19.9,52.1,19.9,72,0C467,427.2,467,395,447.1,375.1z
	 M408.6,429c-11.6,0-21-9.4-21-21c0-11.6,9.4-21,21-21c11.6,0,21,9.4,21,21C429.6,419.6,420.2,429,408.6,429z"/>
</svg>
